<svg width="500" height="500" viewBox="0 0 500 500" fill="none" xmlns="http://www.w3.org/2000/svg">
<path d="M266.267 96.7209C282.087 91.1749 298.525 89.1309 316.069 94.4919C339.617 101.689 355.08 121.304 365.016 142.636C376.529 167.355 390.015 191.494 409.085 211.404C427.191 230.308 445.43 249.018 453.644 274.402C462.941 303.134 461.913 335.501 447.257 362.386C433.74 387.182 409.57 405.793 382.406 414.11C338.757 427.473 299.929 405.747 264.36 382.978C246.543 371.573 228.806 359.595 209.145 351.415C165.541 333.273 111.083 347.549 72.336 317.541C27.474 282.797 32.935 218.196 72.802 181.616C104.345 152.674 149.806 151.771 187.993 136.404C213.908 125.975 239.182 106.217 266.267 96.7209Z" fill="#90BE6D"/>
<path d="M227.353 94.327C241.708 85.565 257.397 80.237 275.711 82.212C300.291 84.863 319.529 101.726 333.705 121.425C350.131 144.252 368.372 166.1 391.206 182.548C412.887 198.165 434.657 213.56 447.988 237.715C463.077 265.056 468.799 298.132 460.023 328.336C451.929 356.193 432.105 379.876 407.205 393.696C367.195 415.903 324.614 401.517 285.01 385.43C265.173 377.372 245.294 368.715 224.319 364.297C177.801 354.497 127.385 379.768 83.1606 356.957C31.9576 330.545 23.8776 263.855 55.3516 218.818C80.2536 183.185 124.632 173.275 158.872 150.114C182.109 134.394 202.776 109.328 227.353 94.327Z" fill="#FFB458"/>
<path d="M257.479 103.071C242.498 95.5551 226.457 91.4251 208.372 94.4821C184.1 98.5861 166.258 116.015 153.68 135.851C139.105 158.837 122.647 180.997 101.192 198.255C80.8206 214.642 60.3416 230.82 48.9536 254.886C36.0636 282.127 32.9496 314.29 44.0506 342.774C54.2886 369.044 75.8826 390.56 101.761 402.272C143.343 421.091 184.626 404.567 222.81 386.595C241.936 377.592 261.057 368.013 281.601 362.438C327.163 350.074 379.348 371.181 421.608 346.452C470.538 317.819 473.372 253.19 438.507 211.881C410.921 179.197 365.951 172.476 330.041 152.375C305.67 138.732 283.128 115.939 257.479 103.071Z" fill="#EFECDF"/>
<mask id="mask0_242_78" style="mask-type:luminance" maskUnits="userSpaceOnUse" x="37" y="93" width="425" height="318">
<path d="M257.479 103.071C242.498 95.5551 226.457 91.4251 208.372 94.4821C184.1 98.5861 166.258 116.015 153.68 135.851C139.105 158.837 122.647 180.997 101.192 198.255C80.8206 214.642 60.3416 230.82 48.9536 254.886C36.0636 282.127 32.9496 314.29 44.0506 342.774C54.2886 369.044 75.8826 390.56 101.761 402.272C143.343 421.091 184.626 404.567 222.81 386.595C241.936 377.592 261.057 368.013 281.601 362.438C327.163 350.074 379.348 371.181 421.608 346.452C470.538 317.819 473.372 253.19 438.507 211.881C410.921 179.197 365.951 172.476 330.041 152.375C305.67 138.732 283.128 115.939 257.479 103.071Z" fill="white"/>
</mask>
<g mask="url(#mask0_242_78)">
<path opacity="0.3" d="M35.5 292.747C42.25 256.5 55.565 236.088 70.215 226.309C84.465 216.797 102.43 218.115 118.45 223.446C134.47 228.778 148.959 239.427 162.947 250.458C176.935 261.49 190.783 273.113 206.184 280.742C239.402 297.198 278.833 293.024 309.307 269.826C327.96 255.627 343.329 234.87 363.378 223.964C392.145 208.316 428.426 217.053 450.345 244.907C472.264 272.761 478.345 317.857 464.922 353.002C431.733 439.896 349.411 491.64 272.106 501.282C230.026 506.53 186.578 499.184 148.352 476.8C110.126 454.416 77.435 416.561 59.425 369.229" fill="white"/>
</g>
<mask id="mask1_242_78" style="mask-type:luminance" maskUnits="userSpaceOnUse" x="37" y="93" width="425" height="318">
<path d="M257.479 103.071C242.498 95.5551 226.457 91.4251 208.372 94.4821C184.1 98.5861 166.258 116.015 153.68 135.851C139.105 158.837 122.647 180.997 101.192 198.255C80.8206 214.642 60.3416 230.82 48.9536 254.886C36.0636 282.127 32.9496 314.29 44.0506 342.774C54.2886 369.044 75.8826 390.56 101.761 402.272C143.343 421.091 184.626 404.567 222.81 386.595C241.936 377.592 261.057 368.013 281.601 362.438C327.163 350.074 379.348 371.181 421.608 346.452C470.538 317.819 473.372 253.19 438.507 211.881C410.921 179.197 365.951 172.476 330.041 152.375C305.67 138.732 283.128 115.939 257.479 103.071Z" fill="white"/>
</mask>
<g mask="url(#mask1_242_78)">
<path opacity="0.6" d="M464.249 315.875C467.499 285.5 454.649 266.732 439.999 258.25C425.749 250 407.783 251.143 391.764 255.767C375.744 260.391 361.255 269.628 347.267 279.196C333.279 288.764 319.431 298.846 304.03 305.463C270.812 319.736 231.381 316.116 200.907 295.995C182.254 283.68 166.885 265.676 146.836 256.217C118.069 242.645 81.7884 250.223 59.8694 274.382C37.9504 298.541 31.8694 337.655 45.2934 368.138C78.4824 443.505 160.803 488.385 238.109 496.748C280.189 501.3 323.637 494.929 361.863 475.514C400.089 456.099 432.78 423.266 450.79 382.213" fill="white"/>
</g>
<path d="M375.662 418.199H236.976C227.836 418.199 220.426 410.789 220.426 401.649V124.999C220.426 115.859 227.836 108.449 236.976 108.449H375.662C384.802 108.449 392.212 115.859 392.212 124.999V401.65C392.211 410.79 384.802 418.199 375.662 418.199Z" fill="black"/>
<path d="M205.858 286.958L183.259 307.398L146.832 294.013L150.791 218.245L179.036 231.924L193.935 239.141L196.341 259.842L197.783 272.252L205.858 286.958Z" fill="#B0614E"/>
<path d="M179.036 231.924L193.935 239.14L196.341 259.841C185.15 256.78 175.154 249.162 169.723 238.87C172.92 236.529 175.913 234.246 179.036 231.924Z" fill="black"/>
<path d="M147.98 278.312C147.98 278.312 187.838 298.331 197.759 272.253L218.451 273.103V357.006H154.39" fill="#90BE6D"/>
<path d="M157.224 325.509L170.01 333.55L212.811 295.567L231.019 344.006L173.381 375.964L137.666 353.855L157.224 325.509Z" fill="#527934"/>
<path d="M365.875 418.199H227.189C218.049 418.199 210.639 410.789 210.639 401.649V124.999C210.639 115.859 218.049 108.449 227.189 108.449H365.875C375.015 108.449 382.425 115.859 382.425 124.999V401.65C382.425 410.79 375.015 418.199 365.875 418.199Z" fill="#527934"/>
<path d="M369.243 124.998V401.65C369.243 403.475 367.758 404.96 365.933 404.96H227.247C225.422 404.96 223.937 403.475 223.937 401.65V124.998C223.937 123.173 225.422 121.688 227.247 121.688H365.932C367.758 121.688 369.243 123.173 369.243 124.998Z" fill="white"/>
<path d="M326.321 134.217H266.742C259.796 134.217 254.164 128.586 254.164 121.639H338.898C338.898 128.586 333.267 134.217 326.321 134.217Z" fill="#FFB458"/>
<path d="M219.062 302.677L246.839 330.348C246.839 330.348 272.183 295.751 270.23 290.672C269.06 287.63 266.653 288.521 266.653 288.521C266.653 288.521 269.64 285.328 268.734 282.883C267.828 280.438 265.157 280.732 265.157 280.732C265.157 280.732 267.332 277.599 264.292 275.843C260.969 273.923 250.087 280.293 239.829 287.307C244.923 281.439 245.104 275.068 242.037 274.11C238.864 273.119 232.018 281.65 227.091 290.49C223.778 296.435 219.062 302.677 219.062 302.677Z" fill="#B0614E"/>
<path d="M250.669 291.269L249.354 289.762C257.007 283.086 264.459 279.94 264.773 279.81L265.544 281.656C265.47 281.687 258.064 284.818 250.669 291.269Z" fill="black"/>
<path d="M255.654 298.106L254.312 296.623C259.521 291.912 266.05 287.721 266.115 287.679L267.192 289.364C267.128 289.405 260.736 293.509 255.654 298.106Z" fill="black"/>
<path d="M157.224 325.509L169.98 341.949L219.585 297.197L258.985 328.661C258.985 328.661 202.01 435.807 139.65 415.682C85.7204 398.277 102.517 308.785 113.005 295.18C120.608 285.317 147.979 278.313 147.979 278.313" fill="#90BE6D"/>
<mask id="mask2_242_78" style="mask-type:luminance" maskUnits="userSpaceOnUse" x="102" y="278" width="157" height="141">
<path d="M157.224 325.509L169.98 341.949L219.585 297.197L258.985 328.661C258.985 328.661 202.01 435.807 139.65 415.682C85.7204 398.277 102.517 308.785 113.005 295.18C120.608 285.317 147.979 278.313 147.979 278.313" fill="white"/>
</mask>
<g mask="url(#mask2_242_78)">
<path d="M229.798 393.161C222.383 377.031 220.054 357.969 223.24 339.486C226.426 321.004 235.003 303.821 247.39 291.105L248.823 292.501C236.714 304.931 228.329 321.738 225.211 339.827C222.093 357.915 224.367 376.56 231.615 392.326L229.798 393.161Z" fill="white"/>
</g>
<mask id="mask3_242_78" style="mask-type:luminance" maskUnits="userSpaceOnUse" x="102" y="278" width="157" height="141">
<path d="M157.224 325.509L169.98 341.949L219.585 297.197L258.985 328.661C258.985 328.661 202.01 435.807 139.65 415.682C85.7204 398.277 102.517 308.785 113.005 295.18C120.608 285.317 147.979 278.313 147.979 278.313" fill="white"/>
</mask>
<g mask="url(#mask3_242_78)">
<path d="M176.686 449.987L174.688 449.889C175.425 434.83 173.819 419.191 170.045 404.662C166.275 390.152 160.406 376.991 153.07 366.601C146.827 357.759 140.633 352.77 134.658 351.771C131.14 351.183 127.449 352.007 123.984 354.044C126.634 362.837 128.235 372.312 128.567 381.954C128.891 391.403 127.809 398.611 125.257 403.991C123.286 408.146 120.112 411.122 116.765 411.953C114.532 412.507 112.371 412.07 110.518 410.686C104.656 406.31 103.872 394.891 104.983 386.442C106.388 375.748 109.943 366.209 114.993 359.582C116.995 356.955 119.245 354.8 121.632 353.172C116.834 338.042 108.857 325.135 98.9092 317.275L100.149 315.706C110.288 323.717 118.434 336.787 123.376 352.09C127.129 349.986 131.138 349.154 134.99 349.798C141.602 350.903 148.051 356.022 154.706 365.448C162.179 376.033 168.153 389.419 171.983 404.16C175.805 418.882 177.432 434.728 176.686 449.987ZM122.246 355.183C120.225 356.645 118.309 358.53 116.583 360.795C111.742 367.148 108.326 376.35 106.965 386.703C105.843 395.241 106.876 405.473 111.714 409.084C113.09 410.111 114.627 410.423 116.282 410.012C119.012 409.334 121.758 406.699 123.449 403.134C125.861 398.05 126.881 391.144 126.567 382.023C126.25 372.754 124.741 363.647 122.246 355.183Z" fill="white"/>
</g>
<path d="M143.075 200.168C143.081 200.233 143.089 200.296 143.095 200.358C143.169 201.03 143.248 201.605 143.308 202.061C143.35 202.401 143.393 202.668 143.424 202.875L143.444 202.997C143.478 203.207 143.501 203.312 143.501 203.312L144.72 205.285L145.766 206.991L146.639 208.405L167.575 242.182C167.575 242.182 192.006 259.204 209.399 236.674C219.402 223.709 216.922 194.297 206.015 174.002C205.082 172.259 204.087 170.581 203.039 168.993C202.835 168.684 202.634 168.381 202.418 168.08C202.39 168.038 202.367 168.001 202.327 167.961C200.901 165.903 199.382 164.01 197.752 162.298C197.658 162.187 197.559 162.085 197.46 161.986C196.587 161.088 195.691 160.248 194.759 159.463C188.67 154.304 181.448 151.716 173.352 153.281C162.178 155.464 154.993 160.659 150.409 166.918C149.377 168.327 148.476 169.789 147.694 171.286C142.055 182.052 142.472 194.473 143.075 200.168Z" fill="#B0614E"/>
<path d="M194.996 216.184L194.613 214.221C195.317 214.084 195.913 213.672 196.29 213.061C196.667 212.451 196.769 211.734 196.576 211.043L192.194 195.315L194.12 194.778L198.502 210.506C198.841 211.723 198.655 213.037 197.991 214.112C197.328 215.188 196.236 215.943 194.996 216.184Z" fill="black"/>
<path d="M181.535 198.904C181.771 200.117 181.261 201.237 180.395 201.405C179.529 201.574 178.635 200.728 178.399 199.515C178.163 198.302 178.673 197.182 179.54 197.014C180.405 196.845 181.299 197.691 181.535 198.904Z" fill="black"/>
<path d="M205.375 194.258C205.611 195.471 205.101 196.591 204.234 196.759C203.368 196.928 202.474 196.082 202.238 194.869C202.002 193.656 202.512 192.536 203.378 192.368C204.245 192.199 205.139 193.046 205.375 194.258Z" fill="black"/>
<path d="M173.842 189.016C173.22 189.359 172.61 189.762 172.192 190.327C171.774 190.892 171.578 191.652 171.843 192.286C172.281 193.335 173.679 193.59 174.851 193.551C177.365 193.467 179.864 192.697 181.991 191.352C182.743 190.876 183.515 190.215 183.56 189.35C183.664 187.338 180.934 187.127 179.863 187.193C177.777 187.323 175.658 188.014 173.842 189.016Z" fill="black"/>
<path d="M198.968 183.569C198.379 183.774 197.792 184.032 197.347 184.46C196.902 184.888 196.62 185.515 196.756 186.104C196.98 187.077 198.152 187.504 199.172 187.643C201.36 187.941 203.636 187.644 205.676 186.795C206.397 186.494 207.163 186.036 207.329 185.295C207.716 183.569 205.385 182.983 204.448 182.882C202.623 182.686 200.687 182.97 198.968 183.569Z" fill="black"/>
<path d="M192.243 218.286C192.302 220.896 190.234 223.06 187.624 223.119C185.014 223.178 182.85 221.11 182.791 218.5" fill="white"/>
<path d="M142.594 199.948C141.533 194.697 140.468 189.411 140.363 184.054C139.93 161.942 162.674 151.609 181.411 149.017C187.92 148.117 196.453 148.199 200.83 153.988C204.53 158.882 203.367 165.406 199.461 169.803C189.437 181.085 169.349 183.673 155.254 182.268C154.976 189.613 151.528 197.527 146.604 202.983" fill="black"/>
<path d="M152.581 200.182C150.631 198.075 147.421 197.383 144.648 198.123C141.874 198.864 139.55 200.885 138.051 203.333C134.626 208.926 135.694 216.862 140.475 221.351C145.256 225.84 153.244 226.406 158.61 222.635" fill="#B0614E"/>
<path d="M147.326 217.131C145.504 214.403 144.673 211.026 144.962 207.758L141.343 209.934L140.312 208.22L145.792 204.923L147.276 206.027C146.418 209.394 147.058 213.13 148.988 216.02L147.326 217.131Z" fill="black"/>
<path d="M369.776 290.074C369.776 290.074 367.124 290.285 367.348 293.65C367.561 296.946 386.24 310.092 390.924 309.339C397.503 308.282 401.052 283.327 394.46 277.281C389.22 272.476 368.77 273.885 366.483 277.135C364.391 280.105 367.796 282.102 367.796 282.102C367.796 282.102 365.155 282.988 365.368 285.678C365.577 288.374 369.776 290.074 369.776 290.074Z" fill="#B0614E"/>
<path d="M386.002 285.68C376.242 282.827 367.917 283.102 367.834 283.105L367.758 281.106C368.108 281.092 376.475 280.811 386.563 283.761L386.002 285.68Z" fill="black"/>
<path d="M384.288 294.271C377.511 292.157 369.717 291.077 369.639 291.066L369.91 289.084C369.99 289.095 377.944 290.197 384.883 292.361L384.288 294.271Z" fill="black"/>
<path d="M354.102 255.027H243.969C239.447 255.027 235.767 251.348 235.767 246.825V185.871C235.767 181.348 239.446 177.669 243.969 177.669H354.102C358.624 177.669 362.304 181.348 362.304 185.871V246.825C362.304 251.348 358.625 255.027 354.102 255.027ZM243.969 179.669C240.55 179.669 237.767 182.451 237.767 185.871V246.825C237.767 250.245 240.549 253.027 243.969 253.027H354.102C357.522 253.027 360.304 250.245 360.304 246.825V185.871C360.304 182.451 357.522 179.669 354.102 179.669H243.969Z" fill="black"/>
<path d="M349.209 249.133H239.076C235.099 249.133 231.874 245.909 231.874 241.931V180.977C231.874 177 235.098 173.775 239.076 173.775H349.209C353.186 173.775 356.411 176.999 356.411 180.977V241.931C356.41 245.909 353.186 249.133 349.209 249.133Z" fill="#FFB458"/>
<path d="M241.178 195.856C241.178 194.921 241.35 194.007 241.696 193.115C242.041 192.208 242.545 191.387 243.207 190.653C243.869 189.92 244.675 189.337 245.625 188.905C246.575 188.459 247.654 188.236 248.863 188.236C250.302 188.236 251.547 188.545 252.598 189.164C253.663 189.783 254.454 190.589 254.972 191.582L252.252 193.482C252.022 192.935 251.712 192.51 251.324 192.208C250.95 191.906 250.532 191.697 250.072 191.582C249.626 191.452 249.194 191.387 248.777 191.387C248.1 191.387 247.51 191.524 247.006 191.798C246.503 192.057 246.085 192.409 245.754 192.855C245.423 193.302 245.179 193.798 245.02 194.345C244.862 194.892 244.783 195.439 244.783 195.986C244.783 196.59 244.876 197.173 245.063 197.734C245.251 198.296 245.517 198.792 245.862 199.224C246.222 199.656 246.654 200.001 247.157 200.26C247.661 200.505 248.215 200.627 248.82 200.627C249.251 200.627 249.69 200.555 250.137 200.411C250.583 200.267 250.993 200.044 251.367 199.742C251.756 199.425 252.051 199.015 252.252 198.511L255.145 200.217C254.843 200.965 254.346 201.606 253.655 202.138C252.965 202.671 252.18 203.081 251.302 203.369C250.439 203.642 249.582 203.779 248.733 203.779C247.625 203.779 246.603 203.556 245.668 203.11C244.747 202.649 243.948 202.045 243.272 201.296C242.61 200.534 242.091 199.684 241.717 198.749C241.357 197.799 241.178 196.835 241.178 195.856ZM263.428 203.779C262.277 203.779 261.234 203.563 260.298 203.131C259.377 202.685 258.578 202.095 257.902 201.361C257.24 200.613 256.729 199.778 256.369 198.857C256.009 197.921 255.83 196.957 255.83 195.964C255.83 194.942 256.017 193.971 256.391 193.05C256.779 192.129 257.312 191.308 257.988 190.589C258.679 189.855 259.492 189.279 260.428 188.862C261.363 188.444 262.385 188.236 263.493 188.236C264.63 188.236 265.659 188.459 266.58 188.905C267.516 189.337 268.315 189.927 268.977 190.675C269.653 191.423 270.171 192.265 270.531 193.201C270.891 194.122 271.071 195.065 271.071 196.029C271.071 197.051 270.884 198.022 270.509 198.943C270.135 199.864 269.603 200.692 268.912 201.426C268.221 202.145 267.408 202.721 266.472 203.153C265.551 203.57 264.537 203.779 263.428 203.779ZM259.435 196.007C259.435 196.597 259.521 197.173 259.694 197.734C259.866 198.281 260.118 198.771 260.449 199.202C260.795 199.634 261.219 199.979 261.723 200.239C262.227 200.498 262.802 200.627 263.45 200.627C264.126 200.627 264.717 200.498 265.22 200.239C265.724 199.965 266.141 199.605 266.472 199.159C266.803 198.713 267.048 198.216 267.206 197.67C267.379 197.108 267.465 196.54 267.465 195.964C267.465 195.374 267.379 194.806 267.206 194.259C267.034 193.712 266.775 193.222 266.429 192.791C266.084 192.345 265.659 191.999 265.156 191.754C264.652 191.51 264.083 191.387 263.45 191.387C262.774 191.387 262.184 191.517 261.68 191.776C261.191 192.035 260.773 192.388 260.428 192.834C260.097 193.266 259.845 193.762 259.672 194.323C259.514 194.87 259.435 195.432 259.435 196.007ZM276.657 194.885V203.649H273.116V188.322H275.923L283.025 197.346V188.322H286.566V203.649H283.673L276.657 194.885ZM301.176 191.431H296.513V203.649H292.973V191.431H288.288V188.322H301.176V191.431ZM305.357 188.322H309.178L314.445 203.649H310.819L309.631 200.217H304.86L303.695 203.649H300.068L305.357 188.322ZM309.048 197.778L307.257 191.884L305.422 197.778H309.048ZM314.458 195.856C314.458 194.921 314.631 194.007 314.977 193.115C315.322 192.208 315.826 191.387 316.488 190.653C317.15 189.92 317.956 189.337 318.906 188.905C319.855 188.459 320.935 188.236 322.144 188.236C323.583 188.236 324.828 188.545 325.878 189.164C326.943 189.783 327.735 190.589 328.253 191.582L325.533 193.482C325.303 192.935 324.993 192.51 324.605 192.208C324.231 191.906 323.813 191.697 323.353 191.582C322.906 191.452 322.475 191.387 322.057 191.387C321.381 191.387 320.791 191.524 320.287 191.798C319.783 192.057 319.366 192.409 319.035 192.855C318.704 193.302 318.459 193.798 318.301 194.345C318.143 194.892 318.064 195.439 318.064 195.986C318.064 196.59 318.157 197.173 318.344 197.734C318.531 198.296 318.798 198.792 319.143 199.224C319.503 199.656 319.935 200.001 320.438 200.26C320.942 200.505 321.496 200.627 322.101 200.627C322.532 200.627 322.971 200.555 323.417 200.411C323.864 200.267 324.274 200.044 324.648 199.742C325.036 199.425 325.332 199.015 325.533 198.511L328.426 200.217C328.124 200.965 327.627 201.606 326.936 202.138C326.245 202.671 325.461 203.081 324.583 203.369C323.72 203.642 322.863 203.779 322.014 203.779C320.906 203.779 319.884 203.556 318.949 203.11C318.028 202.649 317.229 202.045 316.552 201.296C315.89 200.534 315.372 199.684 314.998 198.749C314.638 197.799 314.458 196.835 314.458 195.856ZM341.885 191.431H337.222V203.649H333.682V191.431H328.997V188.322H341.885V191.431Z" fill="white"/>
<path d="M315.828 229.684C314.604 229.684 313.561 229.482 312.697 229.079C311.834 228.662 311.129 228.101 310.582 227.395C310.049 226.676 309.654 225.863 309.394 224.956C309.15 224.035 309.027 223.071 309.027 222.063V214.227H312.568V222.063C312.568 222.639 312.625 223.2 312.741 223.747C312.856 224.28 313.043 224.754 313.302 225.172C313.561 225.589 313.892 225.92 314.295 226.165C314.712 226.41 315.223 226.532 315.828 226.532C316.447 226.532 316.965 226.41 317.382 226.165C317.799 225.906 318.13 225.568 318.375 225.15C318.62 224.719 318.8 224.236 318.915 223.704C319.03 223.171 319.087 222.624 319.087 222.063V214.227H322.628V222.063C322.628 223.128 322.491 224.121 322.218 225.042C321.959 225.963 321.556 226.777 321.009 227.482C320.462 228.173 319.757 228.712 318.893 229.101C318.044 229.489 317.022 229.684 315.828 229.684ZM334.567 218.717C334.524 218.645 334.373 218.537 334.114 218.393C333.855 218.235 333.531 218.069 333.143 217.897C332.754 217.724 332.33 217.573 331.869 217.443C331.408 217.314 330.948 217.249 330.487 217.249C329.883 217.249 329.415 217.357 329.084 217.573C328.753 217.774 328.588 218.091 328.588 218.523C328.588 218.868 328.71 219.142 328.955 219.343C329.214 219.545 329.581 219.725 330.056 219.883C330.531 220.027 331.113 220.199 331.804 220.401C332.783 220.66 333.632 220.977 334.352 221.351C335.071 221.711 335.618 222.178 335.992 222.754C336.381 223.33 336.575 224.092 336.575 225.042C336.575 225.906 336.417 226.64 336.1 227.244C335.784 227.834 335.352 228.316 334.805 228.691C334.272 229.05 333.661 229.317 332.97 229.489C332.279 229.648 331.567 229.727 330.833 229.727C330.084 229.727 329.314 229.655 328.523 229.511C327.746 229.353 326.997 229.137 326.278 228.863C325.558 228.576 324.896 228.23 324.292 227.827L325.846 224.74C325.904 224.812 326.091 224.949 326.407 225.15C326.724 225.337 327.112 225.539 327.573 225.755C328.048 225.956 328.573 226.136 329.149 226.294C329.725 226.453 330.307 226.532 330.898 226.532C331.531 226.532 331.999 226.431 332.301 226.23C332.617 226.028 332.776 225.748 332.776 225.388C332.776 224.999 332.61 224.697 332.279 224.481C331.963 224.265 331.524 224.071 330.962 223.898C330.415 223.725 329.782 223.531 329.063 223.315C328.127 223.027 327.35 222.704 326.731 222.344C326.127 221.984 325.673 221.545 325.371 221.027C325.083 220.509 324.939 219.861 324.939 219.084C324.939 218.005 325.191 217.098 325.695 216.364C326.213 215.616 326.904 215.054 327.767 214.68C328.631 214.292 329.573 214.097 330.595 214.097C331.315 214.097 332.006 214.184 332.668 214.356C333.344 214.529 333.97 214.745 334.546 215.004C335.136 215.263 335.661 215.522 336.122 215.781L334.567 218.717ZM339.041 223.466V214.076H342.495V223.466H339.041ZM339.041 229.554V225.971H342.495V229.554H339.041Z" fill="white"/>
</svg>
