<svg width="1758" height="603" viewBox="0 0 1758 603" fill="none" xmlns="http://www.w3.org/2000/svg">
<path fill-rule="evenodd" clip-rule="evenodd" d="M402.665 552.076C443.308 534.923 478.913 508.222 506.632 474.537C524.178 453.214 515.073 422.411 490.895 409.071L481.372 403.817C457.193 390.477 427.172 400.081 407.057 419C393.279 431.959 377.221 442.468 359.552 449.925C326.389 463.922 289.481 466.351 254.769 456.823C220.057 447.295 189.561 426.364 168.191 397.398C148.081 370.142 137.338 337.587 137.067 303.824L117.049 283.806L139.965 270.891C145.208 244.563 157.012 219.825 174.464 199.058C197.622 171.501 229.38 152.538 264.625 145.223C266.764 144.779 263.52 145.456 271.057 144.024C274.175 144.024 254.48 120.77 253.311 109.792C253.311 103.335 257.709 98.651 267.718 106.241C271.915 110.438 278.129 118.16 282.034 120.77V120.77C284.963 122.349 286.176 118.535 287.252 115.386C296.243 89.0565 307.847 96.4498 312.707 115.281C317.873 135.299 322.001 99.5554 339.828 101.062C344.224 101.434 342.401 112.406 340.276 122.171C338.177 131.816 334.775 145.322 344.348 147.727V147.727C348.917 148.875 350.536 150.524 355.002 152.076C361.447 154.315 362.603 155.657 368.762 158.729C385.925 167.287 401.286 178.79 414.218 192.594C433.097 212.746 462.452 224.229 487.425 212.443L497.261 207.801C522.234 196.016 533.267 165.85 517.103 143.461C491.568 108.091 457.722 79.1938 418.244 59.5063C363.756 32.3331 301.709 24.286 242.091 36.6604C182.473 49.0348 128.754 81.1107 89.5812 127.725C50.4082 174.338 28.0604 232.778 26.1356 293.636C24.2108 354.494 42.8208 414.229 78.9699 463.225C115.119 512.221 166.704 547.628 225.42 563.745C284.137 579.862 346.568 575.752 402.665 552.076Z" fill="white"/>
<ellipse cx="227.147" cy="246.353" rx="23.5694" ry="24.2151" fill="white"/>
</svg>
