<svg width="800" height="954" viewBox="0 0 800 954" fill="none" xmlns="http://www.w3.org/2000/svg">
<path d="M333 217L506 209.5L486 292C486 292 479 283 432.5 283C386 283 379 288.5 379 288.5L333 217Z" fill="#F8961E"/>
<path d="M288.539 76.8831C293.54 74.4007 295.761 70.182 295.2 64.2268L303.742 63.3713C304.083 67.9469 303.214 71.9134 301.136 75.2708C299.067 78.6002 295.943 81.3023 291.762 83.3771C287.545 85.4704 283.555 86.451 279.791 86.3189C276.018 86.1681 272.588 84.9515 269.502 82.6692C266.434 80.3775 263.835 77.0857 261.704 72.7937C259.555 68.4643 258.486 64.4362 258.497 60.7095C258.508 56.9827 259.585 53.6224 261.727 50.6286C263.86 47.6161 267.035 45.0632 271.253 42.9699C275.881 40.6728 280.113 39.7349 283.951 40.156C287.779 40.5585 291.174 42.2688 294.138 45.2869L287.846 50.8866C286.249 49.2142 284.258 48.2487 281.873 47.9902C279.498 47.7038 277.089 48.1672 274.644 49.3806C270.912 51.2331 268.65 53.798 267.857 57.0752C267.084 60.3433 267.804 64.2072 270.018 68.6672C271.518 71.6903 273.221 74.0199 275.126 75.6559C277.05 77.2827 279.139 78.2112 281.393 78.4414C283.657 78.6437 286.039 78.1242 288.539 76.8831Z" fill="#F8961E"/>
<path d="M381.186 42.1975C381.888 47.6316 380.93 52.093 378.314 55.5818C375.695 59.0499 371.72 61.128 366.389 61.8163C361.162 62.4912 356.86 61.4711 353.485 58.7559C350.109 56.0408 348.072 51.9765 347.373 46.5631C346.677 41.1704 347.618 36.7426 350.196 33.2799C352.771 29.7965 356.734 27.7093 362.085 27.0184C367.561 26.3115 371.928 27.2706 375.187 29.8958C378.463 32.4976 380.463 36.5982 381.186 42.1975ZM372.074 43.374C371.56 39.3862 370.535 36.5776 369.001 34.9481C367.468 33.3186 365.461 32.6639 362.982 32.984C360.337 33.3254 358.476 34.532 357.399 36.6036C356.32 38.6546 356.025 41.5809 356.516 45.3827C356.999 49.1225 358.008 51.8911 359.542 53.6886C361.094 55.4628 363.09 56.1924 365.528 55.8777C368.214 55.5309 370.095 54.3217 371.172 52.2501C372.267 50.1551 372.568 47.1964 372.074 43.374Z" fill="#F8961E"/>
<path d="M338.341 48.2057C339.951 53.4428 339.762 58.0019 337.773 61.8829C335.779 65.744 332.212 68.4645 327.075 70.0443C322.037 71.5936 317.625 71.3157 313.839 69.2105C310.053 67.1053 307.357 63.4442 305.753 58.2269C304.155 53.0296 304.333 48.5066 306.288 44.6577C308.237 40.789 311.79 38.0616 316.948 36.4756C322.225 34.8528 326.691 35.0595 330.347 37.0958C334.017 39.1059 336.681 42.8092 338.341 48.2057ZM329.559 50.9062C328.377 47.063 326.893 44.468 325.105 43.1214C323.318 41.7747 321.23 41.4688 318.84 42.2037C316.291 42.9875 314.661 44.4913 313.95 46.7152C313.233 48.9192 313.438 51.8532 314.565 55.5172C315.673 59.1215 317.135 61.6797 318.952 63.1918C320.782 64.6778 322.872 65.0595 325.222 64.3369C327.81 63.5409 329.46 62.0309 330.171 59.807C330.896 57.557 330.692 54.5901 329.559 50.9062Z" fill="#F8961E"/>
<path d="M432.27 55.988C437.812 56.6611 441.985 54.3557 444.788 49.0717L452.396 53.049C450.167 57.0596 447.262 59.8968 443.681 61.5606C440.123 63.2062 436.028 63.7477 431.396 63.1851C426.722 62.6175 422.848 61.2448 419.776 59.0668C416.706 56.8682 414.509 53.9676 413.183 50.3648C411.879 46.7646 411.515 42.5862 412.093 37.8295C412.675 33.0314 413.995 29.0783 416.051 25.9702C418.108 22.8621 420.853 20.6456 424.288 19.3209C427.725 17.9754 431.781 17.5865 436.455 18.1541C441.584 18.777 445.636 20.3184 448.611 22.7783C451.589 25.2175 453.487 28.512 454.305 32.6618L445.972 33.8849C445.555 31.6097 444.422 29.7093 442.572 28.1834C440.744 26.6394 438.476 25.7028 435.767 25.3738C431.631 24.8715 428.331 25.772 425.869 28.0753C423.427 30.3811 421.907 34.0055 421.306 38.9483C420.899 42.2987 421.043 45.1807 421.736 47.5944C422.45 50.0106 423.685 51.934 425.442 53.3646C427.222 54.777 429.498 55.6515 432.27 55.988Z" fill="#F8961E"/>
<path d="M492.538 57.638C491.007 62.8989 488.344 66.6046 484.551 68.755C480.763 70.8855 476.288 71.1997 471.127 69.6976C466.067 68.2246 462.533 65.5686 460.525 61.7298C458.518 57.8909 458.277 53.351 459.803 48.1102C461.322 42.8893 463.956 39.2078 467.704 37.0657C471.458 34.9036 475.925 34.5765 481.106 36.0844C486.407 37.6273 490.025 40.2536 491.962 43.9634C493.924 47.6589 494.116 52.2171 492.538 57.638ZM483.717 55.0705C484.84 51.2099 485.025 48.226 484.272 46.1189C483.518 44.0118 481.941 42.609 479.541 41.9103C476.98 41.1651 474.792 41.5263 472.976 42.994C471.166 44.4417 469.726 47.0058 468.654 50.6864C467.6 54.307 467.417 57.248 468.104 59.5093C468.817 61.7564 470.354 63.2234 472.714 63.9104C475.315 64.6673 477.523 64.3119 479.339 62.8442C481.18 61.3623 482.64 58.7711 483.717 55.0705Z" fill="#F8961E"/>
<path d="M535 77.0385C532.601 81.9646 529.35 85.1666 525.247 86.6445C521.154 88.1036 516.691 87.6565 511.858 85.3033C507.119 82.9956 504.085 79.7802 502.756 75.6572C501.427 71.5342 501.958 67.019 504.347 62.1116C506.728 57.2229 509.947 54.0399 514.003 52.5625C518.068 51.0664 522.526 51.4996 527.378 53.862C532.341 56.2791 535.464 59.4795 536.744 63.4633C538.053 67.4375 537.472 71.9625 535 77.0385ZM526.74 73.016C528.5 69.401 529.187 66.4915 528.801 64.2873C528.414 62.0831 527.097 60.4337 524.849 59.3392C522.452 58.1716 520.234 58.1576 518.196 59.297C516.168 60.4178 514.314 62.7013 512.636 66.1477C510.985 69.5379 510.307 72.4055 510.601 74.7504C510.924 77.0857 512.19 78.7915 514.401 79.8678C516.836 81.0536 519.072 81.0768 521.11 79.9373C523.176 78.7883 525.052 76.4812 526.74 73.016Z" fill="#F8961E"/>
<path fill-rule="evenodd" clip-rule="evenodd" d="M583.312 920.247C654.76 890.093 716.153 840.886 761.042 778.433C777.159 756.01 768.142 725.377 743.964 712.038L681.18 677.398C657.002 664.059 626.923 673.284 609.017 694.305C584.047 723.619 552.443 746.904 516.546 762.054C465.189 783.73 408.032 787.492 354.277 772.737C300.521 757.982 253.295 725.567 220.2 680.71C189.058 638.5 172.42 588.084 172 535.799L141 504.799L176.488 484.799C184.609 444.026 202.888 405.717 229.915 373.556C265.778 330.88 314.958 301.514 369.539 290.186C372.852 289.498 367.829 290.547 379.5 288.329C384.329 288.329 353.829 252.318 352.018 235.318C352.018 225.318 358.829 218.064 374.329 229.818C380.829 236.318 390.452 248.275 396.5 252.318C401.036 254.763 402.915 248.857 404.58 243.981C418.503 203.205 436.474 214.655 444 243.818C452 274.818 458.393 219.464 486 221.798C494.759 222.539 487.577 250.443 483.967 266.591C482.388 273.659 478.87 282.115 482.329 288.479C484.08 291.7 488.017 292.812 493 294.064C500.077 295.841 502.584 298.395 509.5 300.798C519.48 304.266 521.271 306.345 530.809 311.101C565.677 328.49 595.746 353.726 618.814 384.558C635.356 406.669 664.791 417.777 689.764 405.992L754.611 375.389C779.584 363.604 790.519 333.603 775.852 310.206C734.998 245.041 676.838 192.053 607.438 157.443C523.056 115.362 426.968 102.901 334.643 122.064C242.318 141.227 159.127 190.9 98.4633 263.088C37.7991 335.275 3.19092 425.776 0.210083 520.021C-2.77075 614.267 26.0492 706.774 82.0303 782.651C138.011 858.527 217.897 913.358 308.826 938.318C399.756 963.277 496.439 956.912 583.312 920.247Z" fill="#527934"/>
<ellipse cx="311.5" cy="446.798" rx="36.5" ry="37.5" fill="black"/>
</svg>
