<svg width="42" height="62" viewBox="0 0 42 62" fill="none" xmlns="http://www.w3.org/2000/svg">
<path d="M28.8886 30.7614L15.6329 47.1882M21.8305 3C36.6929 20.1934 53.8507 60.0011 22.0025 60.0011C-5.19741 59.1798 -0.122832 33.544 10.7302 16.9628C14.1869 11.6817 18.1848 6.82261 21.8305 3Z" stroke="#B42B13" stroke-width="3" stroke-linecap="round"/>
<path d="M18.7814 35.0323C18.7814 36.2601 17.6527 37.4747 15.9776 37.4747C14.3026 37.4747 13.1738 36.2601 13.1738 35.0323C13.1738 33.8045 14.3026 32.5898 15.9776 32.5898C17.6527 32.5898 18.7814 33.8045 18.7814 35.0323Z" stroke="#B42B13" stroke-width="3"/>
<path d="M27.383 47.1837C27.383 48.4115 26.2542 49.6261 24.5792 49.6261C22.9042 49.6261 21.7754 48.4115 21.7754 47.1837C21.7754 45.9558 22.9042 44.7412 24.5792 44.7412C26.2542 44.7412 27.383 45.9558 27.383 47.1837Z" stroke="#B42B13" stroke-width="3"/>
</svg>
