<svg width="69" height="73" viewBox="0 0 69 73" fill="none" xmlns="http://www.w3.org/2000/svg">
<path d="M25.5508 39.6468V15.4399C25.5508 13.0324 26.4481 10.7234 28.0453 9.02107C29.6425 7.31869 31.8087 6.3623 34.0675 6.3623C36.3263 6.3623 38.4925 7.31869 40.0897 9.02107C41.6869 10.7234 42.5842 13.0324 42.5842 15.4399V39.6468C44.3479 41.0552 45.7793 42.8824 46.7649 44.9834C47.7505 47.0844 48.263 49.4013 48.2619 51.7502C48.2619 60.1062 41.9071 66.8795 34.0675 66.8795C26.2279 66.8795 19.873 60.1062 19.873 51.7502C19.8719 49.4013 20.3845 47.0844 21.3701 44.9834C22.3557 42.8824 23.7871 41.0552 25.5508 39.6468Z" stroke="#B42B13" stroke-width="4" stroke-linejoin="round"/>
<path d="M34.0664 32.5864V45.6985" stroke="#B42B13" stroke-width="4" stroke-linecap="round" stroke-linejoin="round"/>
<path d="M34.0684 57.8019C35.5742 57.8019 37.0184 57.1643 38.0832 56.0294C39.148 54.8945 39.7462 53.3552 39.7462 51.7502C39.7462 50.1452 39.148 48.6059 38.0832 47.471C37.0184 46.3361 35.5742 45.6985 34.0684 45.6985C32.5626 45.6985 31.1184 46.3361 30.0536 47.471C28.9888 48.6059 28.3906 50.1452 28.3906 51.7502C28.3906 53.3552 28.9888 54.8945 30.0536 56.0294C31.1184 57.1643 32.5626 57.8019 34.0684 57.8019Z" stroke="#B42B13" stroke-width="4" stroke-linejoin="round"/>
</svg>
