<svg width="14" height="13" viewBox="0 0 14 13" fill="none" xmlns="http://www.w3.org/2000/svg">
<ellipse cx="6.5188" cy="6.27026" rx="6.5188" ry="6.27026" fill="#D9D9D9"/>
<path d="M8.99362 5.24414C8.99362 5.5599 8.92201 5.8431 8.77878 6.09375C8.63881 6.3444 8.37513 6.60807 7.98776 6.88477L7.61667 7.15332C7.18698 7.45931 6.96237 7.79948 6.94284 8.17383H5.63913C5.65215 7.95247 5.69773 7.7474 5.77585 7.55859C5.85398 7.36979 5.96628 7.19238 6.11276 7.02637C6.2625 6.86035 6.4448 6.70247 6.65964 6.55273C6.89401 6.38997 7.07956 6.24349 7.21628 6.11328C7.35625 5.97982 7.45717 5.84961 7.51901 5.72266C7.58086 5.59245 7.61179 5.45247 7.61179 5.30273C7.61179 5.01628 7.51739 4.79004 7.32859 4.62402C7.14304 4.45801 6.87774 4.375 6.53269 4.375C6.20391 4.375 5.92722 4.47103 5.70261 4.66309C5.48125 4.85514 5.35105 5.10905 5.31198 5.4248L3.92038 5.36621C4.00827 4.7054 4.28008 4.19108 4.73581 3.82324C5.19154 3.4554 5.78399 3.27148 6.51316 3.27148C7.28464 3.27148 7.89011 3.44727 8.32956 3.79883C8.77227 4.14714 8.99362 4.62891 8.99362 5.24414ZM7.0112 8.93555V10.2539H5.60007V8.93555H7.0112Z" fill="#444444"/>
</svg>
